<svg xmlns="http://www.w3.org/2000/svg" viewBox="0 0 568.45 229"><defs><style>.cls-1{fill:#59a562;}.cls-13,.cls-2{fill:#463e3b;}.cls-3,.cls-8{fill:#fff;}.cls-4{fill:#76d98c;}.cls-5{fill:#6dcc7e;}.cls-6{fill:#ea9178;}.cls-7{fill:#a76c59;}.cls-8{opacity:0.2;}.cls-9{opacity:0.15;}.cls-10{fill:#e8f0f9;}.cls-11{fill:#bcd9ea;}.cls-12{fill:#ea2424;}.cls-13{opacity:0.1;}.cls-14{fill:#ff4e00;}.cls-15{opacity:0.45;font-size:90.36px;fill:#939393;font-family:FiraSans-Bold, Fira Sans;font-weight:700;}.cls-16{fill:#141414;opacity:0.35;}</style></defs><title>Asset 210</title><g id="Layer_2" data-name="Layer 2"><g id="Free_Stuff" data-name="Free Stuff"><path class="cls-1" d="M471.07,158h7.76a14.24,14.24,0,0,1,14.24,14.24h0a14.24,14.24,0,0,1-6.52,12l-16,10.3Z"/><path class="cls-2" d="M470,196.35l.54-39.35h8.75a15.24,15.24,0,0,1,8.25,28ZM472.56,159l-.46,33.65,14.41-9.29A13.24,13.24,0,0,0,479.33,159Z"/><path class="cls-3" d="M472.4,163h5.18a9.49,9.49,0,0,1,9.49,9.49h0a9.49,9.49,0,0,1-4.35,8l-10.65,6.86Z"/><path class="cls-2" d="M471,189.18l.37-27.18h6.16a10.49,10.49,0,0,1,5.68,19.31ZM473.39,164l-.29,21.48,9.08-5.85a8.49,8.49,0,0,0-4.6-15.63Z"/><path class="cls-4" d="M465.07,218c18.5-14.5,13.5-71,13.5-71h-63.5l-23,45,5,26.67,68-.67"/><path class="cls-5" d="M472.93,146.5h-2.36s5,56.5-13.5,71l-61,.6v.07l68-.67c15.25-12,14.53-52.45,13.81-66.31A5,5,0,0,0,472.93,146.5Z"/><path class="cls-2" d="M465.69,217.79l-1.23-1.57c14.85-11.64,14.06-52.48,13.46-64.73a4.71,4.71,0,0,0-4.71-4.49H415.07v-2h58.14a6.71,6.71,0,0,1,6.7,6.39C480.69,167.39,480.87,205.89,465.69,217.79Z"/><polygon class="cls-2" points="167.07 213 69.66 213 40.36 183.71 41.78 182.29 70.48 211 167.07 211 167.07 213"/><rect class="cls-6" x="1" y="217" width="566.45" height="11"/><rect class="cls-7" x="1.82" y="217.63" width="566.45" height="1.89"/><polygon class="cls-8" points="562.37 216.05 562.37 225.1 4.63 225.1 4.63 216.05 0.27 216.05 0.27 227.05 566.73 227.05 566.73 216.05 562.37 216.05"/><path class="cls-2" d="M568.45,229H0V216H568.45ZM2,227H566.45v-9H2Z"/><g class="cls-9"><path class="cls-2" d="M62.07,58H.07V39h62Zm-60-2h58V41h-58Z"/><path class="cls-2" d="M122.07,58h-62V39h62Zm-60-2h58V41h-58Z"/><path class="cls-2" d="M91.07,41h-62V22h62Zm-60-2h58V24h-58Z"/></g><g class="cls-9"><path class="cls-2" d="M438.07,60h-62V41h62Zm-60-2h58V43h-58Z"/><path class="cls-2" d="M498.07,60h-62V41h62Zm-60-2h58V43h-58Z"/><path class="cls-2" d="M467.07,43h-62V24h62Zm-60-2h58V26h-58Z"/></g><g class="cls-9"><path class="cls-2" d="M509.07,119h-62V100h62Zm-60-2h58V102h-58Z"/><path class="cls-2" d="M554.07,137h-62V118h62Zm-60-2h58V120h-58Z"/></g><g class="cls-9"><path class="cls-2" d="M118.07,156h-62V137h62Zm-60-2h58V139h-58Z"/><path class="cls-2" d="M163.07,174h-62V155h62Zm-60-2h58V157h-58Z"/></g><circle class="cls-10" cx="27.53" cy="120.43" r="25.43"/><path class="cls-11" d="M27.53,95A25.35,25.35,0,0,0,18,96.84,25.44,25.44,0,0,1,34,145a25.44,25.44,0,0,0-6.51-50Z"/><path class="cls-3" d="M9.09,119.93A25.43,25.43,0,0,1,31.53,94.68a25.43,25.43,0,1,0,0,50.51A25.43,25.43,0,0,1,9.09,119.93Z"/><path class="cls-2" d="M27.53,146.87A26.43,26.43,0,1,1,54,120.44,26.46,26.46,0,0,1,27.53,146.87Zm0-50.87A24.43,24.43,0,1,0,52,120.44,24.46,24.46,0,0,0,27.53,96Z"/><path class="cls-2" d="M18.28,106.66H36.78a3.46,3.46,0,0,1,3.46,3.46v9.25a12.72,12.72,0,0,1-12.72,12.72h0a12.72,12.72,0,0,1-12.72-12.72v-9.25A3.46,3.46,0,0,1,18.28,106.66Z"/><rect class="cls-2" x="26.53" y="126.79" width="2" height="42.39"/><rect class="cls-12" x="31.56" y="167.88" width="3.54" height="0.5"/><rect class="cls-12" x="32.49" y="168.72" width="0.5" height="3.54" transform="translate(-134.99 125.7) rotate(-64.18)"/><rect class="cls-12" x="30.13" y="171.07" width="0.5" height="3.54" transform="translate(-55.09 19.57) rotate(-19.18)"/><rect class="cls-12" x="34.8" y="184.26" width="3.54" height="0.5"/><rect class="cls-12" x="36.91" y="180.39" width="0.5" height="3.54" transform="translate(-143 136.27) rotate(-64.18)"/><rect class="cls-12" x="39.26" y="178.03" width="0.5" height="3.54" transform="translate(-56.86 22.95) rotate(-19.18)"/><path class="cls-10" d="M145.88,1H414.82a11.37,11.37,0,0,1,11.37,11.37V203a0,0,0,0,1,0,0H134.51a0,0,0,0,1,0,0V12.37A11.37,11.37,0,0,1,145.88,1Z"/><rect class="cls-11" x="143.07" y="191.79" width="274" height="2.75"/><path class="cls-3" d="M414.82,1H145.88a11.37,11.37,0,0,0-11.37,11.37v6A11.37,11.37,0,0,1,145.88,7H414.82a11.37,11.37,0,0,1,11.37,11.37v-6A11.37,11.37,0,0,0,414.82,1Z"/><path class="cls-2" d="M427,204H133.35V12.37A12.38,12.38,0,0,1,145.72,0H414.66A12.38,12.38,0,0,1,427,12.37Zm-291.67-2H425V12.37A10.38,10.38,0,0,0,414.66,2H145.72a10.38,10.38,0,0,0-10.37,10.37Z"/><rect class="cls-3" x="143.35" y="19" width="273" height="173"/><rect class="cls-13" x="144.35" y="19" width="272" height="5"/><path class="cls-2" d="M417,193H143.35V18H417Zm-271.67-2H415V20H145.35Z"/><path class="cls-10" d="M94.07,203H465.57a0,0,0,0,1,0,0v5.66a9.34,9.34,0,0,1-9.34,9.34H105.81a11.74,11.74,0,0,1-11.74-11.74V203A0,0,0,0,1,94.07,203Z"/><rect class="cls-11" x="95.14" y="203" width="371.49" height="6"/><path class="cls-2" d="M454.28,219H106.06a12.65,12.65,0,0,1-12.64-12.64V202H466.92v4.36A12.65,12.65,0,0,1,454.28,219ZM95.43,204v2.36A10.65,10.65,0,0,0,106.06,217H454.28a10.65,10.65,0,0,0,10.64-10.64V204Z"/><circle class="cls-14" cx="277.6" cy="10.25" r="1.64"/><path class="cls-2" d="M277.6,12.39a2.14,2.14,0,1,1,2.14-2.14A2.14,2.14,0,0,1,277.6,12.39Zm0-3.28a1.14,1.14,0,1,0,1.14,1.14A1.14,1.14,0,0,0,277.6,9.11Z"/><path class="cls-2" d="M300.85,210.34h-40.6a27,27,0,0,1-14.49-4.17l-3-1.91,1.09-1.68,3,1.91a24.93,24.93,0,0,0,13.4,3.85h40.6a24.42,24.42,0,0,0,15.84-5.68l1.31,1.51A26.09,26.09,0,0,1,300.85,210.34Z"/><text class="cls-15" transform="translate(167.63 140.8)">404... </text><path class="cls-10" d="M104.07,37.5a1.5,1.5,0,0,0,0-3,1.5,1.5,0,0,0,0,3Z"/><path class="cls-16" d="M445.95,139.54a25.39,25.39,0,0,1-6.17-6.33,10.55,10.55,0,0,1-1.5-4.34,8.45,8.45,0,0,1,.74-4.67,7,7,0,0,1,1.46-2,15.68,15.68,0,0,1,1.82-1.42c1.18-.83,2.35-1.65,2.63-2.64s-.16-2.06-1-3.21a29.78,29.78,0,0,1-2.42-3.8,25.4,25.4,0,0,1-2-17.68,22.26,22.26,0,0,1,3.83-8.1,17.06,17.06,0,0,1,6.91-5.45,18.48,18.48,0,0,0-3.44,2.65,19.34,19.34,0,0,0-2.67,3.36A22.93,22.93,0,0,0,441,93.81a25.3,25.3,0,0,0,2.3,16.42,27.76,27.76,0,0,0,2.25,3.61A9,9,0,0,1,446.7,116a4.13,4.13,0,0,1,0,2.76,5,5,0,0,1-1.56,2.13,18.22,18.22,0,0,1-1.87,1.34,7.74,7.74,0,0,0-2.88,2.68,7.28,7.28,0,0,0-.81,3.85,9.56,9.56,0,0,0,1.05,4C441.84,135.31,444,137.41,445.95,139.54Z"/><path class="cls-16" d="M453.94,133.3c2-2.28,2.3-5.3,1.92-8s-1.62-5.43-2.66-8.23a28.73,28.73,0,0,1-1.26-4.41,19,19,0,0,1-.26-4.62,17.53,17.53,0,0,1,2.81-8.58,25.6,25.6,0,0,0-1.25,8.6,24.91,24.91,0,0,0,1.83,8.32c1,2.74,2.19,5.6,2.33,8.78a11.69,11.69,0,0,1-.68,4.61A7.14,7.14,0,0,1,453.94,133.3Z"/><path class="cls-16" d="M462.94,110.3c2-2.28,2.3-5.3,1.92-8s-1.62-5.43-2.66-8.23a28.73,28.73,0,0,1-1.26-4.41,19,19,0,0,1-.26-4.62,17.53,17.53,0,0,1,2.81-8.58,25.6,25.6,0,0,0-1.25,8.6,24.91,24.91,0,0,0,1.83,8.32c1,2.74,2.19,5.6,2.33,8.78a11.69,11.69,0,0,1-.68,4.61A7.14,7.14,0,0,1,462.94,110.3Z"/></g></g></svg>