<svg xmlns="http://www.w3.org/2000/svg" viewBox="0 0 750.45 557.31"><defs><style>.cls-1{fill:#1dcdff;}.cls-2{fill:#1ab5e1;}.cls-3{fill:#4ed9ff;}.cls-4{fill:none;stroke:#314e5d;stroke-miterlimit:10;stroke-width:8px;}.cls-5{fill:#fff;}.cls-6{fill:#dceaef;}.cls-7{fill:#eea248;}.cls-8{fill:#426372;}</style></defs><title>Asset 90</title><g id="Layer_2" data-name="Layer 2"><g id="Layer_1-2" data-name="Layer 1"><rect class="cls-1" x="4.48" y="61.08" width="511.52" height="164.95" rx="25.33" ry="25.33"/><path class="cls-2" d="M516,164.32v51.83c0,5.46-11,9.88-24.49,9.88H29c-13.53,0-24.49-4.42-24.49-9.88v-30c31.18,8.26,66.68,13.83,103.09,17.29,44,4.18,89.35,5.4,134.51,5.58,54,.22,108.9-1.09,159.73-8.42C448.42,193.91,491.61,181.55,516,164.32Z"/><path class="cls-3" d="M189.42,61.5c-48.19,3.26-115.12.11-156.71,12.1C13,79.27,8.12,90.29,4.95,99.4L5,73.9c0-3.27.28-6.83,5.51-9.33,6.47-3.08,17.84-3.32,27.85-3.31C87.51,61.27,141.24,59.11,189.42,61.5Z"/><rect class="cls-4" x="4" y="61.28" width="511.52" height="164.95" rx="25.33" ry="25.33"/><rect class="cls-1" x="169.55" y="317.08" width="577.45" height="164.95" rx="25.33" ry="25.33"/><path class="cls-2" d="M747,420.32v51.83c0,5.46-12.38,9.88-27.65,9.88H197.2c-15.27,0-27.65-4.42-27.65-9.88v-30c35.2,8.26,75.28,13.83,116.38,17.29,49.62,4.18,100.86,5.4,151.85,5.58,60.94.22,122.94-1.09,180.32-8.42C670.71,449.91,719.47,437.55,747,420.32Z"/><path class="cls-3" d="M378.32,317.5c-54.4,3.26-130,.11-176.91,12.1-22.27,5.68-27.76,16.7-31.35,25.81l.07-25.51c0-3.27.31-6.83,6.22-9.33,7.31-3.08,20.14-3.32,31.44-3.31C263.27,317.27,323.94,315.11,378.32,317.5Z"/><rect class="cls-4" x="169" y="317.28" width="577.45" height="164.95" rx="25.33" ry="25.33"/><rect class="cls-5" x="88.25" y="4.91" width="577.8" height="545.37" rx="15.86" ry="15.86"/><path class="cls-6" d="M668.55,26.89v80.33H90.76V26.89c0-13.36,7.1-24.21,15.86-24.21H652.69C661.45,2.68,668.55,13.53,668.55,26.89Z"/><rect class="cls-4" x="87.56" y="4" width="577.8" height="549.31" rx="15.86" ry="15.86"/><circle class="cls-7" cx="142" cy="60.22" r="12"/><circle class="cls-7" cx="181" cy="60.22" r="12"/><circle class="cls-7" cx="220" cy="60.22" r="12"/><path class="cls-8" d="M194.83,224.88c0-11.44,3.92-17.86,11.44-17.86s11.44,6.42,11.44,17.86-3.92,17.91-11.44,17.91S194.83,236.37,194.83,224.88Zm18.12,0c0-10.09-2.45-14.2-6.67-14.2s-6.67,4.11-6.67,14.2,2.51,14.25,6.67,14.25S212.95,235,212.95,224.88Zm-6.68-3.26a3.29,3.29,0,1,1-3.26,3.26A3.24,3.24,0,0,1,206.27,221.62Z"/><path class="cls-8" d="M236.2,212.69l-8.28,5-2.21-3.21,11-6.88h4.06v30.86h7.07v3.72H227.73v-3.72h8.48V212.69Z"/><path class="cls-8" d="M305.11,212.29l2.21,3.46-17.56,10.74,17.56,10.78-2.41,3.37L285.78,228.7v-4.46Z"/><path class="cls-8" d="M332.89,242.19V226H320.34v16.2h-4.76V207.63h4.76v14.45h12.54V207.63h4.76v34.57Z"/><path class="cls-8" d="M359,211.64v30.56h-4.76V211.64H343.56v-4h26.29l-.5,4Z"/><path class="cls-8" d="M395.87,242.19l-1-17.71c-.25-4.87-.25-10.48-.2-11.59h-.16L389,236h-4.57l-5.72-23.13h-.2c0,1.15.1,7.13-.1,11.59l-.85,17.71h-4.41l2-34.57h6.32l5.32,23.08h.2l5.07-23.08h6.37l2,34.57Z"/><path class="cls-8" d="M408.39,242.19V207.63h4.76V238h15.7l-.55,4.16Z"/><path class="cls-8" d="M457.75,224.23v4.46l-19.12,11.94-2.41-3.37,17.56-10.78-17.56-10.74,2.21-3.46Z"/><path class="cls-8" d="M194.83,285.06c0-11.44,3.92-17.86,11.44-17.86s11.44,6.42,11.44,17.86S213.79,303,206.27,303,194.83,296.54,194.83,285.06Zm18.12,0c0-10.09-2.45-14.2-6.67-14.2s-6.67,4.11-6.67,14.2,2.51,14.25,6.67,14.25S212.95,295.19,212.95,285.06Zm-6.68-3.26a3.29,3.29,0,1,1-3.26,3.26A3.24,3.24,0,0,1,206.27,281.79Z"/><path class="cls-8" d="M230.89,298.5h15.7l-.55,3.86H225.47V298.7c11.94-11.84,15.61-16.61,15.61-21.83a5.49,5.49,0,0,0-5.87-5.82c-2.86,0-4.82,1.06-6.93,3.71l-3.21-2.26c2.71-3.36,6.12-5.32,10.39-5.32,6.32,0,10.39,4,10.39,9.54C245.84,282.75,241.07,288.77,230.89,298.5Z"/><path class="cls-8" d="M305.11,272.46l2.21,3.46-17.56,10.74,17.56,10.78-2.41,3.37-19.12-11.94V284.4Z"/><path class="cls-8" d="M325.71,302.37h-9.53V267.8H325c6.17,0,12.35,2,12.35,8.73a7.35,7.35,0,0,1-6,7.38v.2c3.46.65,7.53,2.66,7.53,8.38C338.8,300.06,332.18,302.37,325.71,302.37Zm.1-30.81h-4.87v10.83h5.27c4,0,6.23-1.66,6.23-5.57S329.93,271.56,325.81,271.56Zm.75,14.65h-5.62v12.3h5.42c3.37,0,7.43-1,7.43-5.92S330.53,286.21,326.56,286.21Z"/><path class="cls-8" d="M356.7,303c-8.48,0-12.84-7.07-12.84-17.81,0-10.53,4.36-18,12.84-18s12.84,7.18,12.84,17.91C369.55,295.64,365.17,303,356.7,303Zm0-31.86c-5.62,0-7.88,4.92-7.88,14s2.41,13.9,7.88,13.9c5.62,0,7.87-4.82,7.87-14S362.32,271.1,356.7,271.1Z"/><path class="cls-8" d="M383.82,302.37h-8.08V267.8h7.53c8.18,0,16.3,2.76,16.3,17.11S391.15,302.37,383.82,302.37Zm.51-30.75h-3.81v27h3.86c4.92,0,10.13-2.51,10.13-13.69C394.51,273.17,389,271.61,384.33,271.61Z"/><path class="cls-8" d="M419.28,289.07v13.3h-4.82V289.12l-11.64-21.33h5.27l8.84,16.9h.16l8.88-16.9h5Z"/><path class="cls-8" d="M457.75,284.4v4.46l-19.12,11.94-2.41-3.37,17.56-10.78-17.56-10.74,2.21-3.46Z"/><path class="cls-8" d="M194.83,345.23c0-11.44,3.92-17.86,11.44-17.86s11.44,6.42,11.44,17.86-3.92,17.91-11.44,17.91S194.83,356.72,194.83,345.23Zm18.12,0c0-10.09-2.45-14.2-6.67-14.2s-6.67,4.11-6.67,14.2,2.51,14.25,6.67,14.25S212.95,355.36,212.95,345.23ZM206.27,342a3.29,3.29,0,1,1-3.26,3.26A3.24,3.24,0,0,1,206.27,342Z"/><path class="cls-8" d="M235,363.14a13.83,13.83,0,0,1-10.78-4.66l3-2.51a9.93,9.93,0,0,0,7.62,3.41c4.66,0,7.48-2.61,7.48-6.83,0-4.82-3-6.42-7-6.42h-2.66l.55-3.56H235c3.31,0,6.42-1.85,6.42-5.87,0-3.67-2.81-5.68-6.37-5.68-3,0-5,1.06-7.27,3.16l-2.51-2.76a14.17,14.17,0,0,1,10-4.07c6.62,0,10.74,4,10.74,8.68a8.14,8.14,0,0,1-6.57,8v.2a8.07,8.07,0,0,1,7.68,8.38C247.14,358.57,242.27,363.14,235,363.14Z"/><path class="cls-8" d="M305.11,332.63l2.21,3.46-17.56,10.74,17.56,10.78L304.9,361,285.78,349v-4.46Z"/><path class="cls-8" d="M332.89,362.54v-16.2H320.34v16.2h-4.76V328h4.76v14.45h12.54V328h4.76v34.57h-4.76Z"/><path class="cls-8" d="M352,331.77v11.29h12.74v3.81H352v11.89h15.61v3.76H347.27V328h20l-.55,3.81Z"/><path class="cls-8" d="M393.31,353.86H380l-2.66,8.68h-4.76L383.77,328h6L401,362.54h-5ZM381.17,350h11l-5.37-17.71h-.2Z"/><path class="cls-8" d="M413.91,362.54h-8.08V328h7.53c8.18,0,16.3,2.76,16.3,17.11S421.23,362.54,413.91,362.54Zm.5-30.76H410.6v27h3.86c4.92,0,10.13-2.51,10.13-13.69C424.6,333.34,419.13,331.77,414.41,331.77Z"/><path class="cls-8" d="M442.29,331.77v11.29H455v3.81H442.29v11.89H457.9v3.76H437.53V328h20l-.55,3.81Z"/><path class="cls-8" d="M480.81,347.29l10.13,15.25h-5.67L476,347.89h-4.41v14.65h-4.76V328h9.08c8.63,0,13.14,3.3,13.14,9.78C489.08,342.92,485.47,346.08,480.81,347.29Zm-4.42-15.61h-4.76v12.54h4.82c4.82,0,7.57-1.8,7.57-6.47C484,333.43,481.55,331.68,476.38,331.68Z"/><path class="cls-8" d="M517.92,344.58V349L498.8,361l-2.41-3.37,17.56-10.78-17.56-10.74,2.21-3.46Z"/><path class="cls-8" d="M194.83,405.4c0-11.44,3.92-17.86,11.44-17.86S217.7,394,217.7,405.4s-3.92,17.91-11.44,17.91S194.83,416.89,194.83,405.4Zm18.12,0c0-10.09-2.45-14.2-6.67-14.2s-6.67,4.11-6.67,14.2,2.51,14.25,6.67,14.25S212.95,415.53,212.95,405.4Zm-6.68-3.26A3.29,3.29,0,1,1,203,405.4,3.24,3.24,0,0,1,206.27,402.14Z"/><path class="cls-8" d="M243.38,414.43v8.28h-4.46v-8.28H224.77v-3.26l10.13-23.64,3.86,1.61-9.14,21.63h9.28l.46-9h4v9h4.36v3.67Z"/><path class="cls-8" d="M305.11,392.8l2.21,3.46L289.76,407l17.56,10.78-2.41,3.37-19.12-11.94v-4.46Z"/><path class="cls-8" d="M317.79,427.93l-3.72-1.66,21.42-44.2,3.67,1.76Z"/><path class="cls-8" d="M363,422.71v-16.2H350.42v16.2h-4.76V388.14h4.76v14.45H363V388.14h4.76v34.57Z"/><path class="cls-8" d="M382.12,392v11.29h12.74v3.81H382.12v11.89h15.61v3.76H377.36V388.14h20l-.55,3.81Z"/><path class="cls-8" d="M423.39,414h-13.3l-2.66,8.68h-4.76l11.19-34.57h6l11.19,34.57h-5Zm-12.14-3.86h11l-5.37-17.71h-.21Z"/><path class="cls-8" d="M444,422.71h-8.08V388.14h7.53c8.18,0,16.3,2.76,16.3,17.11S451.33,422.71,444,422.71ZM444.5,392h-3.81v27h3.86c4.92,0,10.13-2.51,10.13-13.69C454.68,393.51,449.21,392,444.5,392Z"/><path class="cls-8" d="M472.37,392v11.29h12.74v3.81H472.37v11.89H488v3.76H467.61V388.14h20L487,392Z"/><path class="cls-8" d="M510.89,407.45,521,422.71h-5.67l-9.23-14.65h-4.42v14.65h-4.76V388.14H506c8.63,0,13.14,3.3,13.14,9.78C519.17,403.09,515.56,406.25,510.89,407.45Zm-4.41-15.6h-4.76V404.4h4.82c4.82,0,7.57-1.8,7.57-6.47C514.1,393.61,511.64,391.85,506.47,391.85Z"/><path class="cls-8" d="M548,404.75v4.46l-19.12,11.94-2.41-3.37L544,407l-17.56-10.74,2.21-3.46Z"/></g></g></svg>