<svg xmlns="http://www.w3.org/2000/svg" viewBox="0 0 750.45 561.75"><defs><style>.cls-1{fill:#fff;}.cls-2{fill:#e8f0f9;}.cls-3{fill:#314e5d;}.cls-4{fill:#4ed9ff;}.cls-5{fill:#1dcdff;}.cls-6{fill:#1ab5e1;}.cls-7{fill:#dceaef;}.cls-8{fill:#ced5d8;}.cls-9{fill:#eea248;}.cls-10{opacity:0.5;}.cls-11{fill:#8bddeb;}.cls-12{fill:#62d6f8;}.cls-13{fill:#e7e7e7;}.cls-14{fill:#ced0d0;}.cls-15{fill:#426372;}</style></defs><title>Asset 100</title><g id="Layer_2" data-name="Layer 2"><g id="Layer_1-2" data-name="Layer 1"><rect class="cls-1" x="4.48" y="43.01" width="511.52" height="164.95" rx="25.33" ry="25.33"/><path class="cls-2" d="M516,146.25v51.83c0,5.46-11,9.88-24.49,9.88H29c-13.53,0-24.49-4.42-24.49-9.88v-30c31.18,8.26,66.68,13.83,103.09,17.29,44,4.18,89.35,5.4,134.51,5.58,54,.22,108.9-1.09,159.73-8.42C448.42,175.83,491.61,163.48,516,146.25Z"/><path class="cls-3" d="M490.19,212.15H29.33A29.36,29.36,0,0,1,0,182.83V68.53A29.36,29.36,0,0,1,29.33,39.21H490.19a29.36,29.36,0,0,1,29.33,29.33v114.3A29.36,29.36,0,0,1,490.19,212.15ZM29.33,47.21A21.35,21.35,0,0,0,8,68.53v114.3a21.35,21.35,0,0,0,21.33,21.33H490.19a21.35,21.35,0,0,0,21.33-21.33V68.53a21.35,21.35,0,0,0-21.33-21.33Z"/><rect class="cls-1" x="169.55" y="299.01" width="577.45" height="164.95" rx="25.33" ry="25.33"/><path class="cls-2" d="M747,402.25v51.83c0,5.46-12.38,9.88-27.65,9.88H197.2c-15.27,0-27.65-4.42-27.65-9.88v-30c35.2,8.26,75.28,13.83,116.38,17.29,49.62,4.18,100.86,5.4,151.85,5.58,60.94.22,122.94-1.09,180.32-8.42C670.71,431.83,719.47,419.48,747,402.25Z"/><path class="cls-4" d="M378.32,299.42c-54.4,3.26-130,.11-176.91,12.1-22.27,5.68-27.76,16.7-31.35,25.81l.07-25.51c0-3.27.31-6.83,6.22-9.33,7.31-3.08,20.14-3.32,31.44-3.31C263.27,299.2,323.94,297,378.32,299.42Z"/><path class="cls-3" d="M721.13,468.15H194.33A29.36,29.36,0,0,1,165,438.83V324.53a29.36,29.36,0,0,1,29.33-29.33h526.8a29.36,29.36,0,0,1,29.33,29.33v114.3A29.36,29.36,0,0,1,721.13,468.15ZM194.33,303.21A21.35,21.35,0,0,0,173,324.53v114.3a21.35,21.35,0,0,0,21.33,21.33h526.8a21.35,21.35,0,0,0,21.33-21.33V324.53a21.35,21.35,0,0,0-21.33-21.33Z"/><rect class="cls-5" x="96.4" y="3.38" width="577.38" height="520.85" rx="25.33" ry="25.33"/><path class="cls-6" d="M673.78,329.38V493c0,17.23-12.38,31.19-27.65,31.19H124c-15.27,0-27.65-14-27.65-31.19V398.38c35.2,26.08,75.27,43.68,116.36,54.61,49.62,13.21,100.85,17.07,151.83,17.63,60.94.69,122.92-3.45,180.3-26.6C597.5,422.8,646.26,383.78,673.78,329.38Z"/><path class="cls-4" d="M305.15,4.69C250.76,15,175.21,5.05,128.26,42.89,106,60.83,100.51,95.62,96.92,124.39L97,43.86c0-10.31.31-21.58,6.22-29.45,7.31-9.72,20.14-10.47,31.43-10.47C190.11,4,250.77-2.82,305.15,4.69Z"/><path class="cls-3" d="M647.91,528.85H121.18a29.36,29.36,0,0,1-29.33-29.33V29.33A29.36,29.36,0,0,1,121.18,0H647.91a29.36,29.36,0,0,1,29.33,29.33v470.2A29.36,29.36,0,0,1,647.91,528.85ZM121.18,8A21.35,21.35,0,0,0,99.85,29.33v470.2a21.35,21.35,0,0,0,21.33,21.33H647.91a21.35,21.35,0,0,0,21.33-21.33V29.33A21.35,21.35,0,0,0,647.91,8Z"/><rect class="cls-1" x="148.69" y="36.96" width="475.14" height="448.47" rx="15.86" ry="15.86"/><path class="cls-7" d="M623.07,49.68v87.08H147.9V49.68c0-6.68,6.8-12.1,15.19-12.1H607.88C616.27,37.58,623.07,43,623.07,49.68Z"/><path class="cls-3" d="M607.4,491.92H164a19.88,19.88,0,0,1-19.86-19.86v-420A19.88,19.88,0,0,1,164,32.21H607.4a19.88,19.88,0,0,1,19.86,19.86v420A19.88,19.88,0,0,1,607.4,491.92ZM164,40.21a11.88,11.88,0,0,0-11.86,11.86v420A11.88,11.88,0,0,0,164,483.92H607.4a11.88,11.88,0,0,0,11.86-11.86v-420A11.88,11.88,0,0,0,607.4,40.21Z"/><rect class="cls-1" x="201.51" y="95.59" width="202.09" height="17.46"/><rect class="cls-8" x="195.22" y="175.57" width="98.87" height="4.15" transform="translate(489.3 355.3) rotate(180)"/><rect class="cls-8" x="195.22" y="184.71" width="215.19" height="4.15" transform="translate(605.62 373.58) rotate(180)"/><rect class="cls-8" x="195.22" y="193.85" width="98.87" height="4.15" transform="translate(489.3 391.86) rotate(180)"/><rect class="cls-8" x="195.22" y="202.99" width="215.19" height="4.15" transform="translate(605.62 410.14) rotate(180)"/><rect class="cls-8" x="195.22" y="212.13" width="98.87" height="4.15" transform="translate(489.3 428.42) rotate(180)"/><rect class="cls-8" x="195.22" y="221.27" width="215.19" height="4.15" transform="translate(605.62 446.69) rotate(180)"/><rect class="cls-8" x="195.22" y="258.16" width="98.87" height="4.15" transform="translate(489.3 520.48) rotate(180)"/><rect class="cls-8" x="195.22" y="267.3" width="215.19" height="4.15" transform="translate(605.62 538.76) rotate(180)"/><rect class="cls-8" x="195.22" y="276.44" width="98.87" height="4.15" transform="translate(489.3 557.04) rotate(180)"/><rect class="cls-8" x="195.22" y="285.58" width="215.19" height="4.15" transform="translate(605.62 575.32) rotate(180)"/><rect class="cls-8" x="195.22" y="294.72" width="98.87" height="4.15" transform="translate(489.3 593.6) rotate(180)"/><rect class="cls-8" x="195.22" y="303.86" width="215.19" height="4.15" transform="translate(605.62 611.87) rotate(180)"/><rect class="cls-8" x="195.22" y="340.75" width="98.87" height="4.15" transform="translate(489.3 685.66) rotate(180)"/><rect class="cls-8" x="195.22" y="349.89" width="215.19" height="4.15" transform="translate(605.62 703.94) rotate(180)"/><rect class="cls-8" x="195.22" y="359.03" width="98.87" height="4.15" transform="translate(489.3 722.22) rotate(180)"/><rect class="cls-8" x="195.22" y="368.17" width="215.19" height="4.15" transform="translate(605.62 740.5) rotate(180)"/><rect class="cls-8" x="195.22" y="377.31" width="98.87" height="4.15" transform="translate(489.3 758.78) rotate(180)"/><rect class="cls-8" x="195.22" y="386.45" width="215.19" height="4.15" transform="translate(605.62 777.05) rotate(180)"/><rect class="cls-9" x="528.96" y="56.19" width="74.22" height="8.73" transform="translate(1132.14 121.11) rotate(180)"/><rect class="cls-9" x="444.5" y="56.19" width="74.22" height="8.73" transform="translate(963.22 121.11) rotate(180)"/><circle class="cls-9" cx="171.51" cy="60.55" r="8.42"/><rect class="cls-3" x="464.5" y="378.11" width="37" height="79.17" transform="translate(-154.89 446.96) rotate(-43.48)"/><g class="cls-10"><circle class="cls-11" cx="385.82" cy="313.8" r="87.31" transform="translate(-110.07 351.58) rotate(-43.48)"/><path class="cls-12" d="M339.8,364.25a87.26,87.26,0,0,1,16-133.39,87.31,87.31,0,1,0,77.46,155.29A87.32,87.32,0,0,1,339.8,364.25Z"/></g><path class="cls-13" d="M481.1,220.58a134.19,134.19,0,0,0-32.65-25.27c-.21-.13-.42-.24-.65-.35A134.46,134.46,0,0,0,285,404.58c.31.35.63.69,1,1a134,134,0,0,0,34.25,26.13l.36.19A134.46,134.46,0,0,0,481.1,220.58Zm-32.89,33.14a87.31,87.31,0,1,1-123.43-3.27A87.3,87.3,0,0,1,448.21,253.73Z"/><path class="cls-14" d="M490.53,391.42A134.46,134.46,0,0,1,276.94,235.35,134.47,134.47,0,1,0,506.36,373.52,135.26,135.26,0,0,1,490.53,391.42Z"/><path class="cls-3" d="M384.66,452.27a137.49,137.49,0,0,1-65.89-16.78l-.5-.27a138.94,138.94,0,0,1-63.44-73.81c-.26-.68-.51-1.39-.74-2.12A138.48,138.48,0,0,1,449.61,191.4c.27.13.54.28.8.43a138.47,138.47,0,0,1-48.53,259.38A141,141,0,0,1,384.66,452.27Zm.23-269A130.54,130.54,0,0,0,261.65,356.72l0,.12c.19.6.41,1.2.63,1.79a130.92,130.92,0,0,0,59.83,69.61l.35.19A130.45,130.45,0,0,0,479.51,224h0a129.86,129.86,0,0,0-32.95-25.2l-.15-.09-.32-.17-.15-.08A130.15,130.15,0,0,0,384.89,183.3Zm0,221.81c-.83,0-1.65,0-2.48,0a91.2,91.2,0,1,1,2.48,0Zm-.11-174.62a82.74,82.74,0,0,0-57.27,22.86h0a83.3,83.3,0,1,0,59.54-22.83Q385.94,230.49,384.81,230.49Z"/><rect class="cls-15" x="522.2" y="399.51" width="56.89" height="174.39" rx="28.44" ry="28.44" transform="translate(-183.82 512.43) rotate(-43.48)"/><path class="cls-3" d="M589.89,561.75H589a32.21,32.21,0,0,1-22.68-10.07L485.47,466.4a32.44,32.44,0,1,1,47.08-44.65L613.41,507a32.52,32.52,0,0,1-1.22,45.86h0A32.19,32.19,0,0,1,589.89,561.75ZM509,419.65a24.46,24.46,0,0,0-17.73,41.25l80.85,85.26a24.53,24.53,0,0,0,34.56.92h0a24.53,24.53,0,0,0,.92-34.56l-80.85-85.26A24.38,24.38,0,0,0,509,419.65Z"/><g class="cls-10"><path class="cls-1" d="M517.9,434.08c10,8.4,17.73,18.85,27.07,27.89,2.78,2.69,7-1.55,4.24-4.24-9.34-9-17.07-19.49-27.07-27.89-2.94-2.47-7.2,1.75-4.24,4.24Z"/><path class="cls-1" d="M500.64,432.19a12.83,12.83,0,0,1,10.83-1.26c3.71,1.08,5.3-4.71,1.6-5.79A18.87,18.87,0,0,0,497.61,427c-3.31,2-.3,7.17,3,5.18Z"/></g><path class="cls-1" d="M418.05,204.15C434,209,449,216.76,461.46,227.83c15.82,14,26.58,32.38,33.16,52.34,1.2,3.65,7,2.09,5.79-1.6-6.89-20.9-18.13-40.29-34.7-55-13.28-11.78-29.14-20-46.05-25.22-3.7-1.13-5.28,4.66-1.6,5.79Z"/><path class="cls-1" d="M359.78,198.58c10.43-1.38,21.24-.87,31.66.19,3.84.39,3.81-5.61,0-6-10.42-1.06-21.23-1.57-31.66-.19-3.77.5-3.82,6.51,0,6Z"/></g></g></svg>