<svg id="Group_11" data-name="Group 11" xmlns="http://www.w3.org/2000/svg" width="35.658" height="35.658" viewBox="0 0 35.658 35.658">
  <path id="Path_7" data-name="Path 7" d="M4.457,0H31.2a4.457,4.457,0,0,1,4.457,4.457V31.2A4.457,4.457,0,0,1,31.2,35.658H4.457A4.457,4.457,0,0,1,0,31.2V4.457A4.457,4.457,0,0,1,4.457,0Z" transform="translate(0 0)" fill="#6d28d9"/>
  <g id="Group_5" data-name="Group 5" transform="translate(5.244 6.341)">
    <g id="Artboard_1" data-name="Artboard 1">
      <path id="Shape_316_1" data-name="Shape 316 1" d="M539.151,72.067c2.446,4.4,10.223,3.83,12.095,0a6.568,6.568,0,0,1,2.467,1.463c-.091,3.807-2.467,5.169-2.467,5.169l.082.884c2.708-.784,3.717-.7,3.521-5.3,1.361,1.117,2.592,3.237,2.465,4.6-.132,1.416-2.15,5.675-1.9,5.6a92.614,92.614,0,0,1-8.913,3.382A3.093,3.093,0,0,0,544.45,86.1a13.49,13.49,0,0,0-1.883,1.878c-2.477-.9-4.669-1.9-6.96-2.872l-1.8-.663-.819-2.1c-1.1-2.722-1.6-4.238.164-6.627.384-.519,1.053-1.647,1.642-1.894-.115,3.9-1.292,5.756,3.107,5.76l.082-.884s-1.91-.239-2.374-5.169Zm2.188,11.824c-.219.294-.355.368-.573.663.055.147-.218.184-.164.331a3.024,3.024,0,0,0,.9,1.215,2.812,2.812,0,0,0,1.8-1.215C543.084,84.421,541.779,83.658,541.339,83.892Zm5.977,0c-.437.294-.955.7-1.392.994.136.221.846.773.983.994.412.248.312.451.819.221a1.479,1.479,0,0,0,.9-1.325c-.218-.258-.437-.626-.655-.884h-.655Z" transform="translate(-531.99 -72.067)" fill="#fff" fill-rule="evenodd"/>
    </g>
    <path id="Shape_316_1-2" data-name="Shape 316 1" d="M560,133.183c-1.328.368-2.544.816-3.986,1.1a33.534,33.534,0,0,1-.412,6.406C557.337,138.675,559.825,135.215,560,133.183Z" transform="translate(-539.007 -117.59)" fill="#fff" fill-rule="evenodd"/>
    <path id="Shape_316_1-3" data-name="Shape 316 1" d="M555.6,133.183c1.375.368,2.634.816,4.127,1.1a32.416,32.416,0,0,0,.427,6.406C558.362,138.675,555.787,135.215,555.6,133.183Z" transform="translate(-551.328 -117.59)" fill="#fff" fill-rule="evenodd"/>
  </g>
</svg>
