<svg version="1" xmlns="http://www.w3.org/2000/svg" width="682.667" height="682.667" viewBox="0 0 512.000000 512.000000"><path d="M50.1 1.5C32.3 5.4 15.3 18.7 7.2 35.1-.5 50.6 0 34.6 0 256s-.5 205.4 7.2 220.9c8.2 16.6 25.1 29.7 43.4 33.6 10.4 2.2 400.4 2.2 410.8 0 23.9-5 44.1-25.2 49.1-49.1 2.2-10.4 2.2-400.4 0-410.8-5-23.9-25.2-44.1-49.1-49.1C451.3-.6 60-.6 50.1 1.5zm119.6 74.2c7.8 12.1 21.8 24 36.8 31.5 32.2 16.2 76.5 17 111.9 2.2 17.3-7.3 35-21.5 42.2-34.1 1.5-2.6 2.8-4.9 2.9-5.1.3-.4 11.1 3.5 15.2 5.7 2.3 1.1 8.8 5.5 14.5 9.8 5.7 4.2 10.5 7.8 10.7 8 .9.6-1.9 21.6-3.9 29.2-5.3 20.9-18.7 42.4-32.1 51.6l-4.2 2.9.6 6.9c.3 3.8.7 7.1.9 7.3.4.3 21.2-5.7 27.4-7.9 16.5-6 24.3-15 27.9-32.3 1-4.6 2-15.6 2.4-26.4l.6-18.5 7.8 8c21.7 22.1 34.6 52 30.7 71-1.9 8.9-8.6 28.2-19.2 55-5.3 13.2-10.1 25.7-10.7 27.7-1 3.1-2.1 4.2-5.9 5.8-9.7 4.4-59.8 24.3-79.4 31.6-20.2 7.5-57.8 20.4-59.7 20.4-.6 0-2.7-2.6-4.7-5.7-5.1-8-14.4-16.9-20.6-19.8-9.4-4.4-9.4-4.4-25.8 12.5l-14.5 15-18-6.9c-20.7-8-32.6-12.8-69.5-28.6-14.6-6.2-32.5-13.4-39.8-16-7.3-2.7-13.9-5.3-14.7-5.9-1.7-1.4-22.6-54.3-25.9-65.8-6.9-24-5.4-42 5.1-61.1C67.8 127.3 90.1 99 93.9 99c1.1 0 1.2 1.5.8 6.7-3.4 38.4-4 50-2.9 57.5 2.8 19.6 13.4 26.5 43.4 28.4l10.8.7v-4c0-2.2.3-5.4.6-7.1.6-2.9.3-3.2-4.4-5.6-15.2-7.7-27-32.6-32.2-67.5-1.6-10.9-1.8-13.8-.8-14.4.9-.6 54.7-23.1 56.5-23.6.1-.1 1.9 2.5 4 5.6zm-28.2 253.7c16.1 4.7 30.9 8.5 41.5 10.9l2.5.6.1 21.3c0 15.4.7 26.3 2.2 39.3 4.2 34 5.1 42 4.7 42.3-.5.6-19.9-23-29.1-35.3-24.6-33.2-40.4-62.5-43.8-81.8-.6-3.4-.5-3.8 1.1-3.3 1 .2 10.4 3 20.8 6zm250.5-5.2c-.1 2.8-3.9 15.8-6.9 23.3-8.5 21.1-28 51.8-53 83.3-6.1 7.7-10.7 12.7-10.9 11.8-.2-.8 1.1-13.8 2.9-28.8 2.8-23 3.3-30.9 3.3-50.1l.1-22.8 2.5-.5c6.1-1.3 32.8-8.7 46-12.8 16.8-5.1 16-5 16-3.4z"/><path d="M198.3 266c-2.6 2.9-5.7 6.8-6.8 8.7l-1.9 3.4 2.3 4.3c1.2 2.4 4.5 6.9 7.2 9.9l4.9 5.5 4.2-1c6.7-1.5 13.3-5.6 20-12.6l6.2-6.5-5.2-4.8c-5.9-5.4-15.7-10.5-21.9-11.5-4-.6-4.3-.5-9 4.6zM289 269.1c-5.2 3.9-10.2 7.4-11 8-1.2.7.6 2.9 9 10.9 5.8 5.6 11.6 10.4 12.9 10.7 3.3.8 12.5-4 15.6-8.1 1.3-1.7 3.1-5.5 4-8.4 1.8-5.3 1.8-5.4-.5-8.5-1.3-1.8-3.8-5.1-5.4-7.4-3.1-4.2-3.2-4.2-9.1-4.2-5.8 0-6.3.2-15.5 7z"/></svg>